<?xml version="1.0" standalone="no"?>
<!DOCTYPE svg PUBLIC "-//W3C//DTD SVG 20010904//EN"
 "http://www.w3.org/TR/2001/REC-SVG-20010904/DTD/svg10.dtd">
<svg version="1.0" xmlns="http://www.w3.org/2000/svg"
 width="1024.000000pt" height="1024.000000pt" viewBox="0 0 1024.000000 1024.000000"
 preserveAspectRatio="xMidYMid meet">

<g transform="translate(0.000000,1024.000000) scale(0.100000,-0.100000)"
fill="#000000" stroke="none">
<path d="M2520 9484 c-389 -42 -709 -162 -990 -373 -95 -72 -257 -226 -330
-316 -239 -294 -358 -602 -417 -1075 -17 -136 -18 -298 -18 -2595 0 -2596 -1
-2548 46 -2810 62 -345 201 -658 400 -901 145 -178 281 -302 436 -398 220
-138 425 -209 738 -258 l150 -23 2580 0 2580 0 145 23 c282 45 414 82 590 164
224 105 374 226 585 473 197 231 308 455 389 787 77 313 71 74 71 2918 0 2786
4 2600 -56 2899 -95 473 -387 906 -789 1171 -174 114 -399 214 -575 255 -98
22 -326 53 -480 65 -91 6 -971 10 -2535 9 -1936 -1 -2419 -4 -2520 -15z m1870
-678 c0 -2 -8 -10 -17 -17 -16 -13 -17 -12 -4 4 13 16 21 21 21 13z m120 -270
c0 -2 -8 -10 -17 -17 -16 -13 -17 -12 -4 4 13 16 21 21 21 13z m-503 -508 c-3
-8 -6 -5 -6 6 -1 11 2 17 5 13 3 -3 4 -12 1 -19z m3 -418 c0 -108 -2 -120 -20
-130 -25 -13 -70 -89 -81 -138 -22 -94 34 -204 130 -254 98 -51 207 -32 284
51 93 99 90 228 -6 324 l-48 49 3 106 3 107 760 0 760 0 3 -109 3 -110 -31
-24 c-16 -13 -42 -45 -58 -70 -51 -87 -31 -212 45 -284 62 -59 158 -82 247
-57 48 13 123 82 147 134 40 87 15 201 -57 264 l-34 30 0 116 0 116 325 -3
c229 -2 327 -6 336 -15 9 -9 52 -329 71 -522 l3 -35 -75 -12 c-224 -38 -446
-159 -612 -332 -92 -96 -147 -177 -204 -296 -159 -337 -151 -701 23 -1038 200
-386 571 -608 1018 -608 l123 0 6 -37 c14 -84 86 -771 86 -813 0 -79 -18 -121
-74 -176 -35 -34 -66 -54 -96 -62 -35 -10 -304 -12 -1152 -10 l-1107 3 130
178 c72 97 134 175 139 172 5 -3 12 0 16 6 4 8 3 9 -4 5 -18 -11 -14 3 8 35
32 43 59 112 71 173 27 149 -64 324 -202 389 l-48 22 -1 70 c-1 160 -109 283
-284 321 -36 8 -40 13 -50 55 -25 97 -92 176 -185 217 l-41 19 139 191 c76
105 146 211 156 234 47 116 24 264 -59 369 -158 202 -457 201 -609 -2 -23 -31
-179 -248 -347 -482 -168 -235 -307 -427 -310 -427 -3 0 -14 16 -24 35 -26 47
-101 122 -146 145 l-36 18 23 174 c50 368 252 1886 259 1942 12 101 -6 96 364
96 l320 0 0 -120z m3133 -734 c166 -42 286 -113 412 -241 116 -118 190 -253
232 -421 26 -106 24 -314 -6 -424 -68 -256 -245 -475 -475 -584 -141 -68 -205
-81 -386 -81 -184 0 -238 12 -385 84 -177 88 -311 222 -400 404 -69 141 -88
224 -89 397 -1 158 11 222 65 351 92 224 301 419 525 493 162 53 352 61 507
22z m-2858 -745 c79 -45 101 -157 47 -242 -16 -24 -133 -190 -262 -369 -128
-179 -260 -361 -292 -406 -72 -101 -79 -129 -43 -172 22 -26 34 -32 67 -32 49
0 65 16 192 184 98 130 128 152 197 141 94 -16 145 -115 103 -198 -9 -17 -59
-89 -110 -158 -50 -70 -97 -136 -103 -147 -41 -76 53 -159 117 -104 12 9 65
73 118 142 53 69 108 133 122 142 31 21 96 23 132 5 38 -19 70 -74 70 -122 0
-48 -14 -71 -154 -260 -108 -145 -118 -176 -70 -214 55 -43 83 -28 175 95 39
52 84 101 100 109 85 45 182 -16 183 -115 1 -57 -31 -107 -280 -446 -205 -278
-270 -340 -446 -424 -369 -176 -812 -83 -1155 243 -151 144 -269 340 -315 522
-18 74 -22 117 -22 240 0 155 5 195 55 480 30 174 40 200 91 238 98 73 250
-18 234 -140 -3 -21 -8 -119 -12 -218 -6 -159 -4 -182 10 -194 9 -7 26 -11 38
-7 16 4 178 222 527 711 277 389 513 711 525 717 57 30 106 30 161 -1z m1947
-2978 c67 -31 142 -104 169 -166 18 -40 23 -69 23 -127 -1 -92 -17 -133 -81
-201 -43 -46 -46 -52 -29 -61 37 -21 98 -82 121 -122 50 -86 52 -214 6 -304
-28 -55 -112 -127 -179 -154 -54 -22 -71 -23 -360 -26 -222 -2 -307 0 -318 9
-12 10 -14 101 -14 579 0 313 3 576 6 585 6 15 36 16 308 13 285 -3 304 -4
348 -25z m-3821 -287 c37 -8 86 -24 108 -36 87 -44 167 -141 159 -193 -3 -21
-9 -22 -104 -25 l-100 -3 -36 35 c-20 19 -54 40 -78 46 -118 32 -219 -56 -144
-125 18 -17 61 -32 156 -54 146 -35 198 -55 246 -96 50 -42 66 -80 66 -160 0
-116 -56 -198 -174 -254 -51 -24 -66 -26 -190 -26 -120 0 -141 3 -186 23 -58
26 -132 98 -163 157 -41 79 -26 95 88 95 l84 0 42 -43 c72 -76 195 -88 257
-27 32 32 35 55 12 88 -22 32 -55 46 -184 77 -137 33 -194 60 -243 114 -42 47
-61 108 -54 173 21 178 215 281 438 234z m991 -13 c65 -30 131 -94 159 -156
23 -51 24 -61 27 -363 4 -368 12 -344 -109 -344 -128 0 -119 -20 -119 268 0
136 -5 263 -10 284 -25 87 -135 138 -225 104 -27 -11 -56 -32 -73 -54 l-27
-35 -5 -274 c-4 -229 -7 -275 -20 -283 -8 -6 -58 -9 -110 -8 l-95 3 -3 419
c-2 329 0 421 10 428 7 4 48 8 90 8 68 0 79 -3 92 -22 9 -12 16 -30 16 -40 0
-10 5 -18 10 -18 6 0 10 3 10 8 0 13 96 73 141 88 61 20 181 13 241 -13z m839
-2 c106 -40 183 -118 209 -211 15 -53 13 -623 -2 -638 -7 -7 -43 -12 -89 -12
-88 0 -109 12 -109 61 l0 30 -33 -25 c-18 -14 -60 -38 -92 -53 -53 -25 -71
-28 -160 -28 -83 0 -107 4 -140 21 -95 51 -145 137 -145 249 0 85 21 136 77
186 66 60 123 73 310 74 l163 0 0 35 c0 82 -58 130 -157 130 -70 0 -119 -16
-165 -55 -16 -14 -35 -22 -41 -18 -86 50 -137 88 -137 101 0 9 24 39 53 68 54
51 121 85 212 104 63 14 184 4 246 -19z m982 -4 c214 -98 310 -380 216 -632
-29 -78 -112 -166 -196 -207 -55 -27 -80 -33 -155 -36 -102 -5 -152 9 -224 64
-24 19 -46 34 -49 34 -2 0 -6 -93 -7 -207 l-3 -208 -100 -3 c-85 -2 -102 0
-112 15 -18 24 -19 1153 -1 1171 7 7 45 12 99 12 95 0 105 -5 115 -58 4 -18 9
-32 11 -32 3 0 23 15 46 34 111 89 240 108 360 53z m1574 -5 c8 -5 12 -87 15
-272 3 -241 5 -269 23 -305 22 -45 88 -85 139 -85 53 0 114 38 144 88 l27 47
3 260 c2 186 7 262 15 267 7 4 51 8 99 8 66 0 90 -4 102 -16 14 -13 16 -65 16
-414 0 -353 -2 -400 -16 -415 -13 -12 -33 -15 -97 -13 -86 3 -92 7 -111 70 -5
16 -9 15 -33 -9 -76 -71 -224 -102 -337 -69 -76 22 -144 88 -175 169 -20 55
-21 75 -21 372 0 241 3 314 13 318 19 8 181 7 194 -1z m895 -4 c9 -7 53 -112
99 -233 45 -121 90 -238 99 -260 l17 -40 40 105 c22 58 64 170 93 250 72 202
60 190 178 190 97 0 122 -8 122 -37 0 -7 -56 -153 -124 -325 -68 -172 -168
-425 -221 -563 -53 -137 -102 -256 -107 -263 -8 -9 -39 -12 -112 -10 -93 3
-101 5 -104 24 -2 11 23 87 54 170 32 82 57 154 57 159 0 6 -69 179 -153 385
-84 206 -157 387 -163 402 -19 47 1 58 112 58 63 0 103 -4 113 -12z"/>
<path d="M7091 4494 c0 -11 3 -14 6 -6 3 7 2 16 -1 19 -3 4 -6 -2 -5 -13z"/>
<path d="M5111 4414 c0 -11 3 -14 6 -6 3 7 2 16 -1 19 -3 4 -6 -2 -5 -13z"/>
<path d="M7101 4374 c0 -11 3 -14 6 -6 3 7 2 16 -1 19 -3 4 -6 -2 -5 -13z"/>
<path d="M7121 4214 c0 -11 3 -14 6 -6 3 7 2 16 -1 19 -3 4 -6 -2 -5 -13z"/>
<path d="M5955 4200 c3 -5 8 -10 11 -10 2 0 4 5 4 10 0 6 -5 10 -11 10 -5 0
-7 -4 -4 -10z"/>
<path d="M5625 4140 c-3 -5 -1 -10 4 -10 6 0 11 5 11 10 0 6 -2 10 -4 10 -3 0
-8 -4 -11 -10z"/>
<path d="M5447 4129 c7 -7 15 -10 18 -7 3 3 -2 9 -12 12 -14 6 -15 5 -6 -5z"/>
<path d="M6105 4130 c3 -5 8 -10 11 -10 2 0 4 5 4 10 0 6 -5 10 -11 10 -5 0
-7 -4 -4 -10z"/>
<path d="M5294 4118 c-11 -18 -12 -48 -2 -48 4 0 8 5 8 11 0 5 5 7 10 4 6 -4
8 -10 5 -15 -18 -29 37 -51 76 -30 13 7 19 7 19 1 0 -10 -21 -17 -67 -23 -12
-2 -28 5 -35 15 -8 10 -20 19 -28 20 -8 2 -22 6 -30 11 -12 7 -13 6 -2 -5 16
-18 15 -32 -3 -26 -8 4 -22 -4 -32 -17 -22 -28 -48 -24 -33 5 8 15 7 17 -4 13
-8 -3 -16 -14 -19 -25 -3 -10 -11 -19 -19 -19 -9 0 -9 3 -2 8 6 4 10 15 8 25
-1 9 4 17 11 17 8 0 16 4 20 10 3 5 -6 5 -24 -1 -21 -7 -28 -16 -25 -27 3 -9
-1 -7 -7 6 -7 12 -18 22 -26 22 -12 0 -12 -3 1 -16 17 -16 12 -39 -5 -28 -5 3
-7 10 -4 15 3 5 -1 6 -9 3 -9 -3 -16 -10 -16 -16 0 -5 -5 -6 -10 -3 -6 4 -8
10 -5 15 3 4 -4 10 -14 13 -17 4 -18 1 -11 -24 6 -19 4 -31 -5 -39 -17 -14
-27 1 -14 20 22 36 -4 41 -45 9 -34 -27 -44 -18 -22 18 14 22 11 21 -14 -7
-16 -19 -33 -47 -36 -62 -4 -16 -12 -28 -20 -28 -14 0 -61 -60 -47 -60 4 0 0
-5 -9 -11 -10 -5 -18 -15 -18 -21 0 -7 5 -6 14 2 13 10 13 8 3 -14 -13 -27
-30 -37 -21 -11 9 22 -9 18 -24 -5 -12 -20 -10 -20 1086 -20 979 0 1104 2
1145 16 26 9 50 20 53 25 7 13 -19 7 -28 -6 -5 -6 -8 -5 -8 3 0 7 7 15 15 18
8 4 12 11 8 18 -3 6 -1 6 8 -1 21 -21 35 -15 64 27 22 32 25 43 16 54 -9 11
-19 12 -36 6 -13 -5 -26 -6 -30 -2 -4 4 -12 0 -18 -9 -7 -8 -19 -18 -28 -21
-19 -7 -19 23 0 46 10 12 10 16 2 16 -7 0 -9 4 -6 10 3 6 -1 7 -9 4 -12 -5
-16 1 -17 22 0 16 -3 23 -6 16 -8 -21 6 -64 20 -57 7 4 1 -2 -12 -13 -27 -22
-49 -20 -47 5 0 9 -5 17 -12 19 -7 1 -8 0 -2 -3 8 -3 8 -9 0 -18 -8 -9 -8 -15
0 -20 16 -10 12 -22 -8 -27 -11 -3 -19 0 -19 7 0 8 7 11 16 8 10 -4 6 3 -8 17
-15 15 -20 25 -13 28 7 2 12 8 12 13 0 6 -4 7 -10 4 -5 -3 -11 4 -11 17 -1 20
-2 21 -6 3 -7 -28 -19 -39 -28 -24 -6 8 -4 10 6 4 8 -5 5 1 -5 13 -11 12 -24
22 -29 22 -6 0 -2 -7 9 -16 18 -15 18 -15 -3 -9 -18 5 -23 2 -22 -12 0 -11 3
-13 6 -5 4 10 8 10 19 1 11 -9 12 -15 3 -25 -8 -10 -16 -11 -23 -5 -14 12 -56
3 -56 -11 0 -5 -5 -6 -11 -2 -8 4 -7 9 2 15 8 4 15 13 15 19 3 23 5 24 13 11
6 -9 8 -4 6 18 -1 17 -6 35 -10 39 -5 4 -5 2 -2 -4 4 -7 -3 -25 -15 -40 -12
-16 -23 -31 -25 -33 -2 -2 -6 -1 -9 2 -4 4 -1 13 5 21 9 11 9 16 0 22 -8 4 -9
3 -5 -4 8 -13 -6 -16 -18 -4 -4 4 -17 7 -29 7 -13 1 -21 6 -19 15 3 11 1 11
-13 0 -16 -13 -16 -15 2 -21 10 -3 21 -5 26 -2 4 2 7 0 7 -6 0 -6 6 -8 13 -5
8 3 13 -3 13 -16 0 -13 -4 -16 -10 -10 -15 15 -24 12 -31 -11 -4 -13 -10 -17
-14 -11 -4 7 -12 8 -21 2 -12 -8 -12 -10 -1 -10 11 0 11 -3 1 -15 -7 -8 -17
-12 -24 -8 -6 4 -5 -1 2 -10 8 -9 12 -22 9 -29 -4 -8 -6 -7 -6 5 -1 9 -4 17
-9 17 -4 0 -12 8 -19 18 -10 17 -8 18 13 14 14 -2 24 -1 23 4 -4 22 2 33 21
39 25 8 17 25 -12 25 -14 0 -18 -5 -15 -15 9 -21 -36 -44 -48 -25 -3 5 3 7 14
5 14 -3 19 2 18 15 -1 10 -7 16 -14 13 -9 -4 -11 0 -6 13 4 11 3 15 -5 10 -6
-3 -13 -2 -16 3 -8 12 -54 4 -70 -12 -7 -7 -10 -19 -8 -27 4 -11 -2 -9 -18 5
-13 11 -20 14 -16 8 9 -16 -35 -13 -46 2 -5 6 -12 5 -20 -3 -16 -16 -40 -15
-63 1 -14 11 -15 16 -5 22 9 6 11 4 5 -6 -5 -8 0 -7 12 4 11 9 23 14 28 10 4
-5 4 -2 0 6 -6 11 -4 13 8 8 10 -3 17 -2 17 3 0 6 -4 10 -9 10 -5 0 -17 3 -26
6 -9 4 -15 3 -14 -2 3 -20 -2 -31 -16 -31 -8 0 -15 7 -15 16 0 14 -2 14 -10 1
-9 -13 -10 -13 -10 0 0 12 -2 13 -9 1 -5 -7 -6 -23 -4 -35 3 -14 2 -17 -4 -8
-5 7 -24 16 -41 21 -29 9 -31 8 -22 -9 15 -27 13 -47 -2 -32 -17 17 -23 15
-26 -8 -4 -43 -6 -50 -11 -44 -3 3 -6 11 -7 17 -1 26 -27 77 -37 77 -7 0 -5 5
3 10 8 5 11 10 5 10 -16 -1 -45 -26 -38 -33 3 -4 1 -7 -6 -7 -8 0 -11 -8 -8
-20 3 -11 2 -20 -3 -20 -12 0 -19 25 -10 40 9 15 1 50 -12 50 -5 0 -6 6 -2 13
5 7 -2 5 -16 -4 -17 -11 -25 -25 -24 -43 1 -21 -2 -24 -12 -15 -11 9 -18 8
-29 -1 -10 -9 -15 -9 -15 -1 0 6 5 11 11 11 5 0 7 5 3 12 -5 7 -2 9 7 6 9 -4
19 4 26 18 10 21 9 24 -7 24 -10 0 -21 -6 -24 -12 -3 -7 -5 -4 -4 7 0 11 -4
31 -10 45 -12 27 -12 26 -16 -7 -2 -15 2 -19 13 -15 14 5 14 3 2 -11 -7 -9
-11 -26 -8 -37 3 -11 1 -20 -5 -20 -5 0 -6 -6 -2 -12 4 -7 -1 -6 -12 3 -10 9
-27 15 -36 14 -10 -2 -18 3 -18 11 0 20 -17 18 -29 -3 -6 -11 -11 -13 -11 -5
0 7 -4 11 -9 8 -5 -3 -12 2 -15 11 -4 9 -1 20 6 25 11 6 10 8 0 8 -7 0 -10 5
-7 10 4 6 2 9 -4 8 -5 -2 -16 6 -25 17 -15 20 -15 19 -11 -4 3 -14 9 -29 15
-35 16 -16 12 -30 -5 -16 -9 8 -15 8 -15 2 0 -6 9 -14 20 -17 11 -3 20 -13 20
-21 0 -8 5 -12 10 -9 6 3 13 -1 16 -9 3 -9 14 -16 23 -16 14 0 14 2 1 10 -13
8 -12 10 3 10 11 0 17 -8 17 -21 0 -11 5 -29 10 -40 9 -15 7 -19 -5 -19 -9 0
-14 4 -11 9 8 13 -4 42 -14 36 -5 -3 -16 5 -24 17 -13 18 -16 19 -16 5 0 -9
-7 -17 -16 -17 -14 0 -14 3 -4 15 8 10 9 15 2 15 -6 0 -16 -8 -21 -17 -6 -10
-11 -14 -11 -9 0 5 -6 3 -14 -3 -11 -9 -13 -7 -11 11 3 32 3 32 18 20 8 -7 16
-6 26 5 12 13 11 14 -8 8 -21 -6 -26 1 -21 34 1 8 -4 12 -14 8 -8 -3 -16 -2
-18 3 -2 6 -9 5 -18 0 -13 -8 -13 -10 1 -10 9 0 22 -7 29 -15 16 -19 1 -19
-34 -2 -14 8 -23 17 -19 20 10 10 -20 8 -37 -2 -18 -12 -44 22 -36 47 6 15 5
15 -8 0 -15 -21 -31 -24 -20 -5 5 9 4 9 -6 0 -8 -7 -15 -20 -16 -28 -2 -12 2
-13 17 -4 20 10 39 5 39 -11 0 -5 -6 -7 -14 -4 -8 3 -24 -5 -36 -18 -13 -13
-20 -17 -16 -10 4 6 2 12 -3 12 -6 0 -11 6 -11 13 0 7 -9 20 -20 30 -19 16
-20 16 -20 -3 0 -11 6 -19 13 -17 7 1 11 -6 9 -17 -2 -11 1 -15 7 -11 6 3 11
2 11 -2 0 -5 -16 -15 -35 -22 -19 -7 -35 -17 -35 -23 0 -7 -4 -7 -12 0 -13 10
-19 12 -38 12 -5 0 -10 5 -10 11 0 6 5 7 13 2 27 -17 47 -13 53 11 4 17 11 23
22 19 15 -4 15 -3 2 6 -11 8 -18 7 -26 -4 -15 -20 -25 -19 -17 0 3 9 2 15 -3
14 -5 -1 -11 0 -14 1 -16 6 -58 4 -54 -2 6 -10 -10 -11 -19 -1 -4 3 -2 12 4
19 7 8 6 14 -2 20 -7 4 -9 3 -6 -3 4 -6 -1 -17 -10 -24 -14 -12 -15 -11 -9 7
5 15 2 24 -10 28 -13 5 -14 9 -4 21 8 10 9 15 2 15 -6 0 -14 -6 -18 -12z m14
-98 c10 -17 10 -20 -3 -20 -8 0 -15 -4 -15 -10 0 -5 11 -10 25 -10 18 0 23 4
19 15 -4 8 -1 15 5 15 6 0 11 -9 11 -21 0 -19 -4 -21 -37 -15 -66 10 -88 14
-95 15 -5 1 -8 6 -8 12 0 7 10 9 24 7 19 -4 26 0 30 18 7 26 25 24 44 -6z
m296 5 c-7 -16 -24 -21 -24 -6 0 8 7 13 27 20 1 1 0 -6 -3 -14z m71 5 c17 -7
15 -9 -12 -9 -18 -1 -33 -6 -33 -12 0 -5 -5 -7 -10 -4 -8 5 -7 11 1 21 13 16
25 17 54 4z m360 0 c3 -5 -1 -10 -9 -10 -9 0 -16 5 -16 10 0 6 4 10 9 10 6 0
13 -4 16 -10z m-1047 -37 c-8 -10 -18 -26 -21 -35 -8 -22 -33 -23 -41 -2 -3 8
-11 12 -17 9 -7 -5 -4 -14 7 -26 12 -14 14 -23 7 -30 -8 -8 -13 -7 -18 2 -5 8
-4 10 3 5 17 -11 15 9 -3 24 -12 10 -13 16 -4 26 8 10 16 11 23 5 7 -6 17 -6
26 -1 8 6 11 10 5 10 -12 1 25 30 38 30 6 0 3 -8 -5 -17z m696 2 c-4 -8 -10
-15 -15 -15 -5 0 -9 7 -9 15 0 8 7 15 15 15 9 0 12 -6 9 -15z m345 -15 c-6
-16 -12 -30 -14 -30 -9 0 0 46 10 52 15 11 15 11 4 -22z m-929 3 c0 -3 -6 -3
-12 0 -7 2 -22 -3 -33 -12 -20 -16 -20 -16 -2 6 16 18 47 22 47 6z m520 -5 c0
-6 -6 -5 -15 2 -8 7 -15 14 -15 16 0 2 7 1 15 -2 8 -4 15 -11 15 -16z m38 -4
c8 -16 8 -21 -2 -21 -8 0 -13 11 -13 24 0 27 0 26 15 -3z m245 7 c3 -14 1 -18
-9 -14 -8 3 -12 9 -9 13 3 5 -1 11 -7 13 -8 4 -7 6 3 6 9 1 19 -8 22 -18z
m346 -26 c0 -5 -6 -1 -14 9 -10 13 -15 15 -15 6 0 -7 -3 -11 -6 -7 -4 3 -4 14
0 23 6 16 8 15 21 -2 8 -10 14 -23 14 -29z m296 23 c-4 -13 -7 -30 -8 -39 -1
-9 -7 -16 -14 -16 -6 0 -12 3 -11 6 2 19 -4 22 -17 11 -13 -10 -15 -9 -15 12
0 31 17 48 48 48 21 0 23 -3 17 -22z m-965 2 c0 -5 -2 -10 -4 -10 -3 0 -8 5
-11 10 -3 6 -1 10 4 10 6 0 11 -4 11 -10z m-424 -7 c-2 -2 -10 -6 -18 -7 -31
-5 -58 -18 -58 -27 0 -6 -5 -7 -11 -3 -14 8 39 41 69 41 13 0 21 -2 18 -4z
m947 -6 c4 3 7 1 7 -5 0 -17 -16 -15 -31 6 -12 15 -12 16 2 5 9 -7 19 -10 22
-6z m177 -8 c-12 -8 -10 -10 8 -6 12 3 22 1 22 -4 0 -10 -33 -12 -43 -2 -4 3
-2 12 5 20 6 7 13 11 17 8 3 -3 -1 -11 -9 -16z m98 -23 c-16 -31 -17 -31 -13
6 5 45 4 45 14 29 6 -9 6 -23 -1 -35z m-1153 24 c3 -5 -1 -10 -10 -10 -9 0
-13 5 -10 10 3 6 8 10 10 10 2 0 7 -4 10 -10z m710 1 c3 -5 2 -12 -3 -15 -5
-3 -9 1 -9 9 0 17 3 19 12 6z m-120 -11 c-3 -5 -12 -7 -20 -3 -21 7 -19 13 6
13 11 0 18 -4 14 -10z m1053 -19 c9 -24 7 -32 -9 -47 -18 -16 -23 -15 -16 4 1
4 5 6 8 5 4 -1 7 9 7 22 0 16 -5 22 -14 18 -8 -3 -12 -9 -9 -13 3 -5 1 -11 -5
-15 -14 -9 -13 11 2 35 17 27 24 25 36 -9z m-1721 13 c-3 -3 -12 -4 -19 -1 -8
3 -5 6 6 6 11 1 17 -2 13 -5z m123 2 c0 -2 -8 -10 -17 -17 -16 -13 -17 -12 -4
4 13 16 21 21 21 13z m943 -13 c-3 -7 -8 -13 -12 -13 -4 0 -8 6 -8 13 0 8 6
14 13 14 7 0 10 -6 7 -14z m122 -12 c2 -11 0 -21 -6 -21 -5 0 -9 12 -9 27 0
30 9 27 15 -6z m349 21 c3 -5 -1 -9 -9 -9 -8 0 -12 4 -9 9 3 4 7 8 9 8 2 0 6
-4 9 -8z m36 -2 c0 -5 -5 -10 -11 -10 -5 0 -7 5 -4 10 3 6 8 10 11 10 2 0 4
-4 4 -10z m75 0 c3 -5 1 -10 -4 -10 -6 0 -11 5 -11 10 0 6 2 10 4 10 3 0 8 -4
11 -10z m-1808 -19 c0 -11 -5 -18 -9 -15 -4 3 -5 11 -1 19 7 21 12 19 10 -4z
m614 2 c8 -9 9 -14 2 -10 -6 4 -13 1 -16 -5 -3 -7 -4 -3 -4 10 1 26 1 26 18 5z
m53 2 c-4 -8 -10 -12 -15 -9 -11 6 -2 24 11 24 5 0 7 -7 4 -15z m386 11 c0 -2
-8 -10 -17 -17 -16 -13 -17 -12 -4 4 13 16 21 21 21 13z m417 -2 c-3 -3 -12
-4 -19 -1 -8 3 -5 6 6 6 11 1 17 -2 13 -5z m-471 -22 c0 -10 -6 -19 -13 -19
-8 0 -9 6 -2 19 5 10 11 18 12 18 2 0 3 -8 3 -18z m-889 -6 c0 -8 -6 -12 -15
-9 -11 5 -11 7 0 14 7 5 13 9 14 9 0 0 1 -6 1 -14z m248 5 c3 -5 2 -12 -3 -15
-5 -3 -9 1 -9 9 0 17 3 19 12 6z m39 1 c3 -5 -1 -9 -9 -9 -8 0 -12 4 -9 9 3 4
7 8 9 8 2 0 6 -4 9 -8z m896 4 c0 -2 -7 -7 -16 -10 -8 -3 -12 -2 -9 4 6 10 25
14 25 6z m225 -14 c-3 -3 -11 0 -18 7 -9 10 -8 11 6 5 10 -3 15 -9 12 -12z
m175 14 c0 -2 -9 -6 -20 -9 -11 -3 -20 -1 -20 4 0 5 9 9 20 9 11 0 20 -2 20
-4z m48 -14 c2 -7 -1 -12 -8 -12 -6 0 -9 4 -6 9 4 5 1 12 -4 14 -6 3 -5 4 2 3
6 -1 14 -8 16 -14z m63 9 c-8 -5 -20 -7 -28 -4 -21 8 -15 13 15 13 20 0 23 -3
13 -9z m276 3 c-3 -3 -12 -4 -19 -1 -8 3 -5 6 6 6 11 1 17 -2 13 -5z m36 -6
c-4 -7 -8 -15 -8 -18 -1 -11 -24 -44 -25 -34 0 5 5 15 12 22 7 7 8 12 2 12 -6
0 -16 -10 -22 -22 -8 -17 -11 -19 -11 -6 -1 9 -7 19 -13 21 -7 3 -3 6 8 6 12
1 27 8 34 16 15 18 34 20 23 3z m-2243 -13 c-15 -18 1 -20 18 -3 9 9 15 9 25
-1 10 -10 8 -11 -7 -5 -15 6 -17 4 -11 -6 5 -9 4 -11 -3 -6 -7 4 -12 2 -12 -6
0 -8 -6 -6 -17 5 -16 16 -16 19 -3 27 21 14 24 12 10 -5z m317 -1 c-3 -3 -12
-4 -19 -1 -8 3 -5 6 6 6 11 1 17 -2 13 -5z m1308 -12 c-3 -3 -11 0 -18 7 -9
10 -8 11 6 5 10 -3 15 -9 12 -12z m326 -25 c-8 -8 -11 -3 -11 19 1 25 2 27 11
11 8 -14 8 -22 0 -30z m105 21 c4 -7 3 -8 -4 -4 -6 4 -22 1 -34 -5 -21 -11
-22 -11 -9 4 16 20 37 22 47 5z m-396 -10 c0 -6 -3 -8 -7 -5 -3 4 -13 1 -22
-6 -14 -11 -14 -10 -2 6 15 20 31 22 31 5z m191 -11 c-10 -9 -11 -8 -5 6 3 10
9 15 12 12 3 -3 0 -11 -7 -18z m-754 7 c-3 -3 -12 -4 -19 -1 -8 3 -5 6 6 6 11
1 17 -2 13 -5z m783 -18 c0 -3 -4 -8 -10 -11 -5 -3 -10 -1 -10 4 0 6 5 11 10
11 6 0 10 -2 10 -4z m-1785 -16 c-3 -5 -10 -10 -16 -10 -5 0 -9 5 -9 10 0 6 7
10 16 10 8 0 12 -4 9 -10z m2020 -10 c18 -19 17 -20 -3 -20 -15 0 -20 6 -19
20 1 11 2 20 3 20 0 0 9 -9 19 -20z m-478 -5 c0 -8 -4 -12 -9 -9 -4 3 -8 9 -8
15 0 5 4 9 8 9 5 0 9 -7 9 -15z m218 -4 c3 -5 2 -12 -3 -15 -5 -3 -9 1 -9 9 0
17 3 19 12 6z"/>
<path d="M5275 4009 c-4 -6 -5 -12 -2 -15 2 -3 7 2 10 11 7 17 1 20 -8 4z"/>
<path d="M6497 3983 c-4 -3 -7 -13 -7 -22 0 -13 2 -13 13 1 6 9 19 18 27 21
10 4 8 6 -6 6 -11 1 -24 -2 -27 -6z"/>
<path d="M6510 3960 c0 -5 5 -10 10 -10 6 0 10 5 10 10 0 6 -4 10 -10 10 -5 0
-10 -4 -10 -10z"/>
<path d="M5483 4116 c0 -8 4 -14 8 -13 4 1 15 -7 24 -18 13 -16 13 -14 -1 13
-20 34 -31 41 -31 18z"/>
<path d="M5520 4119 c0 -5 5 -7 10 -4 6 3 10 8 10 11 0 2 -4 4 -10 4 -5 0 -10
-5 -10 -11z"/>
<path d="M6253 4111 c3 -13 -1 -21 -11 -23 -13 -3 -13 -5 1 -17 15 -12 17 -11
17 3 0 11 4 14 13 10 8 -6 8 -3 -1 9 -8 9 -11 21 -7 27 3 5 1 10 -6 10 -6 0
-9 -8 -6 -19z"/>
<path d="M5395 4110 c-3 -5 -3 -10 1 -10 4 0 -1 -6 -12 -14 -17 -13 -17 -14
-1 -12 24 3 46 26 27 27 -10 0 -7 4 5 9 16 7 17 9 3 9 -9 1 -20 -3 -23 -9z"/>
<path d="M5679 4104 c-11 -14 -11 -16 0 -10 8 5 17 3 22 -5 5 -8 9 -9 9 -4 0
6 -4 16 -9 23 -6 10 -11 9 -22 -4z"/>
<path d="M5726 4107 c3 -10 9 -15 12 -12 3 3 0 11 -7 18 -10 9 -11 8 -5 -6z"/>
<path d="M5855 4100 c5 -17 4 -21 -5 -15 -8 5 -11 4 -6 -3 3 -6 15 -9 26 -7
11 2 24 -4 30 -13 9 -16 9 -16 10 1 0 9 -4 17 -8 17 -5 0 -19 10 -31 21 l-23
22 7 -23z"/>
<path d="M6296 4103 c-6 -14 -5 -15 5 -6 7 7 10 15 7 18 -3 3 -9 -2 -12 -12z"/>
<path d="M6320 4111 c0 -6 7 -11 16 -11 8 0 12 -4 9 -10 -3 -5 1 -10 9 -10 8
0 14 -6 12 -12 -1 -7 -1 -10 1 -7 2 3 16 5 31 3 17 -2 19 -1 7 2 -11 3 -29 14
-40 24 -29 25 -45 33 -45 21z"/>
<path d="M6412 4104 c9 -9 21 -15 27 -13 6 2 -2 10 -17 17 -25 11 -25 11 -10
-4z"/>
<path d="M4970 4080 c-12 -16 -19 -30 -16 -30 2 0 14 14 26 30 12 17 19 30 16
30 -2 0 -14 -13 -26 -30z"/>
<path d="M5019 4093 c-13 -16 -12 -17 4 -4 16 13 21 21 13 21 -2 0 -10 -8 -17
-17z"/>
<path d="M5800 4106 c0 -2 7 -9 15 -16 13 -11 14 -10 9 4 -5 14 -24 23 -24 12z"/>
<path d="M5187 4085 c-6 -14 7 -28 31 -31 6 -1 12 2 12 8 0 6 -7 7 -16 4 -13
-5 -15 -2 -11 14 6 23 -8 28 -16 5z"/>
<path d="M5976 4085 c10 -8 23 -15 28 -15 6 0 1 7 -10 15 -10 8 -23 15 -28 15
-6 0 -1 -7 10 -15z"/>
<path d="M5638 4083 c7 -3 16 -2 19 1 4 3 -2 6 -13 5 -11 0 -14 -3 -6 -6z"/>
<path d="M6294 4075 c-10 -8 -14 -14 -9 -14 6 0 19 6 29 14 11 8 15 15 10 15
-6 0 -19 -7 -30 -15z"/>
<path d="M6445 4080 c-16 -7 -17 -9 -3 -9 9 -1 20 4 23 9 7 11 7 11 -20 0z"/>
<path d="M6480 4079 c0 -5 5 -7 10 -4 6 3 10 8 10 11 0 2 -4 4 -10 4 -5 0 -10
-5 -10 -11z"/>
<path d="M5423 4066 c0 -7 7 -12 16 -11 9 2 18 4 21 4 6 2 -23 21 -31 21 -3 0
-6 -6 -6 -14z"/>
<path d="M6185 4070 c3 -5 8 -10 11 -10 2 0 4 5 4 10 0 6 -5 10 -11 10 -5 0
-7 -4 -4 -10z"/>
<path d="M6521 4064 c0 -11 3 -14 6 -6 3 7 2 16 -1 19 -3 4 -6 -2 -5 -13z"/>
<path d="M5025 4060 c3 -5 8 -10 11 -10 2 0 4 5 4 10 0 6 -5 10 -11 10 -5 0
-7 -4 -4 -10z"/>
<path d="M5849 4059 c-11 -7 -8 -9 9 -9 15 0 21 -4 16 -12 -4 -7 -3 -8 4 -4 7
4 12 11 12 16 0 13 -26 19 -41 9z"/>
<path d="M6061 4053 c16 -27 26 -29 26 -8 0 8 -3 13 -5 10 -3 -3 -12 1 -20 8
-13 11 -14 9 -1 -10z"/>
<path d="M6555 4060 c3 -5 8 -10 11 -10 2 0 4 5 4 10 0 6 -5 10 -11 10 -5 0
-7 -4 -4 -10z"/>
<path d="M7142 4050 c0 -14 2 -19 5 -12 2 6 2 18 0 25 -3 6 -5 1 -5 -13z"/>
<path d="M6136 4045 c-3 -10 1 -15 12 -15 16 -1 16 -1 0 -11 -23 -13 -12 -37
16 -35 22 1 22 1 4 38 -21 42 -23 44 -32 23z"/>
<path d="M6170 4056 c0 -2 8 -10 18 -17 15 -13 16 -12 3 4 -13 16 -21 21 -21
13z"/>
<path d="M6426 4044 c-3 -8 -12 -14 -19 -14 -8 0 -21 -8 -28 -17 -12 -14 -12
-15 0 -9 8 5 17 3 23 -5 8 -11 9 -10 4 4 -3 11 0 17 9 17 8 0 15 -4 15 -10 0
-14 27 -13 36 2 5 8 2 9 -9 5 -22 -8 -32 9 -11 21 14 8 14 10 1 15 -9 3 -18
-1 -21 -9z"/>
<path d="M6585 4043 c2 -10 4 -21 4 -25 1 -5 5 -8 10 -8 10 0 3 38 -9 45 -5 3
-7 -3 -5 -12z"/>
<path d="M6235 4040 c-4 -6 -11 -7 -17 -4 -7 4 -8 2 -4 -4 7 -12 36 -5 36 9 0
12 -7 11 -15 -1z"/>
<path d="M6920 4046 c0 -2 7 -9 15 -16 13 -11 14 -10 9 4 -5 14 -24 23 -24 12z"/>
<path d="M7069 4018 c-1 -7 0 -21 1 -31 1 -15 -3 -17 -18 -13 -15 5 -22 1 -27
-14 -3 -11 -11 -20 -16 -20 -6 0 -7 -5 -4 -10 4 -7 14 -3 25 10 11 12 23 19
29 16 14 -9 41 4 41 20 0 8 8 14 18 14 14 0 15 2 2 10 -9 6 -17 5 -21 -2 -10
-15 -29 0 -22 17 3 8 2 15 -1 15 -3 0 -7 -6 -7 -12z"/>
<path d="M6890 4011 c0 -6 5 -12 10 -12 6 -1 15 -2 22 -3 7 0 17 -11 24 -23 6
-13 14 -20 17 -17 3 4 2 14 -3 24 -5 10 -6 21 -2 25 4 4 -4 6 -18 4 -14 -2
-31 0 -37 4 -8 5 -13 4 -13 -2z"/>
<path d="M7025 4009 c-4 -6 -5 -12 -2 -15 2 -3 7 2 10 11 7 17 1 20 -8 4z"/>
<path d="M7142 4000 c0 -14 2 -19 5 -12 2 6 2 18 0 25 -3 6 -5 1 -5 -13z"/>
<path d="M6335 3990 c3 -5 8 -10 11 -10 2 0 4 5 4 10 0 6 -5 10 -11 10 -5 0
-7 -4 -4 -10z"/>
<path d="M7131 3954 c0 -11 3 -14 6 -6 3 7 2 16 -1 19 -3 4 -6 -2 -5 -13z"/>
<path d="M6838 6663 c-16 -2 -28 -6 -28 -8 0 -3 -16 -100 -35 -216 -19 -117
-34 -214 -32 -216 2 -1 60 22 128 53 169 76 340 146 424 174 39 12 74 26 78
30 12 10 -107 98 -179 132 -101 48 -243 68 -356 51z"/>
<path d="M6630 6593 c-100 -50 -232 -179 -277 -273 -58 -119 -66 -101 113
-233 86 -64 161 -114 166 -111 4 3 8 27 8 53 0 57 21 220 55 429 28 170 28
172 18 172 -5 0 -42 -17 -83 -37z"/>
<path d="M7355 6384 c-109 -38 -298 -113 -315 -125 -11 -8 -12 -12 -3 -16 44
-17 253 -181 474 -371 l38 -33 8 28 c4 15 8 89 7 163 0 120 -3 142 -26 202
-30 79 -88 178 -103 177 -5 0 -41 -11 -80 -25z"/>
<path d="M6283 6094 c-12 -32 5 -228 26 -287 29 -82 78 -171 123 -222 l38 -43
89 48 c49 27 127 68 175 91 47 23 86 45 86 48 0 3 -10 12 -22 20 -24 14 -208
146 -393 281 -60 44 -111 80 -112 80 -2 0 -6 -7 -10 -16z"/>
<path d="M7190 5988 c0 -59 -70 -525 -86 -580 -9 -29 26 -22 117 24 106 53
207 151 261 254 l38 71 -159 137 c-88 75 -162 136 -165 136 -3 0 -6 -19 -6
-42z"/>
<path d="M7064 5761 c-5 -5 -125 -69 -267 -141 -244 -125 -257 -133 -242 -150
23 -26 131 -76 200 -95 64 -17 242 -23 255 -9 9 10 74 393 68 399 -2 3 -9 1
-14 -4z"/>
<path d="M5807 2833 l2 -138 143 0 c156 1 191 10 224 60 24 37 21 117 -5 153
-34 49 -84 62 -234 62 l-132 0 2 -137z"/>
<path d="M5804 2485 c3 -9 6 -80 6 -157 l0 -140 148 4 c129 3 152 6 190 26 23
13 52 37 62 55 38 62 18 156 -44 200 -29 20 -44 22 -200 25 -154 3 -168 2
-162 -13z"/>
<path d="M3968 2334 c-36 -19 -48 -43 -48 -94 0 -61 33 -90 102 -90 68 1 123
26 171 78 30 34 37 50 37 82 l0 40 -117 0 c-85 -1 -126 -5 -145 -16z"/>
<path d="M4922 2639 c-99 -49 -147 -183 -112 -309 24 -87 112 -151 209 -151
159 -1 258 154 207 323 -40 134 -182 197 -304 137z"/>
</g>
</svg>
